<svg width="552" height="552" viewBox="0 0 552 552" fill="none" xmlns="http://www.w3.org/2000/svg">
<path d="M496.743 433.784H56.7904C36.8623 433.784 20 416.922 20 396.994V154.79C20 134.862 36.8623 118 56.7904 118H495.21C515.138 118 532 134.862 532 154.79V396.994C532 416.922 516.671 433.784 496.743 433.784ZM56.7904 142.527C50.6587 142.527 44.5269 148.659 44.5269 154.79V396.994C44.5269 404.659 50.6587 409.257 56.7904 409.257H495.21C502.874 409.257 507.473 403.126 507.473 396.994V154.79C507.473 147.126 501.341 142.527 495.21 142.527C496.743 142.527 56.7904 142.527 56.7904 142.527ZM93.5808 360.204V191.581H142.635L191.689 252.898L240.743 191.581H289.796V360.204H240.743V263.629L191.689 324.946L142.635 263.629V360.204H93.5808ZM401.701 360.204L328.12 278.958H377.174V191.581H426.228V277.425H475.281L401.701 360.204Z" fill="black"/>
<rect x="0.5" y="0.5" width="551" height="551" rx="4.5" stroke="#9747FF" stroke-dasharray="10 5"/>
</svg>
